<svg width="24" height="24" viewBox="0 0 24 24" fill="none" xmlns="http://www.w3.org/2000/svg">
<path d="M18.5775 14.483C18.5775 15.4233 18.4014 16.2287 18.0491 16.8991C17.6997 17.5668 17.2224 18.0781 16.6173 18.4332C16.015 18.7884 15.3318 18.9659 14.5676 18.9659C13.8034 18.9659 13.1187 18.7884 12.5136 18.4332C11.9113 18.0753 11.434 17.5625 11.0818 16.8949C10.7323 16.2244 10.5576 15.4205 10.5576 14.483C10.5576 13.5426 10.7323 12.7386 11.0818 12.071C11.434 11.4006 11.9113 10.8878 12.5136 10.5327C13.1187 10.1776 13.8034 10 14.5676 10C15.3318 10 16.015 10.1776 16.6173 10.5327C17.2224 10.8878 17.6997 11.4006 18.0491 12.071C18.4014 12.7386 18.5775 13.5426 18.5775 14.483ZM16.988 14.483C16.988 13.821 16.8843 13.2628 16.6769 12.8082C16.4724 12.3509 16.1883 12.0057 15.8247 11.7727C15.461 11.5369 15.042 11.419 14.5676 11.419C14.0931 11.419 13.6741 11.5369 13.3105 11.7727C12.9468 12.0057 12.6613 12.3509 12.4539 12.8082C12.2494 13.2628 12.1471 13.821 12.1471 14.483C12.1471 15.1449 12.2494 15.7045 12.4539 16.1619C12.6613 16.6165 12.9468 16.9616 13.3105 17.1974C13.6741 17.4304 14.0931 17.5469 14.5676 17.5469C15.042 17.5469 15.461 17.4304 15.8247 17.1974C16.1883 16.9616 16.4724 16.6165 16.6769 16.1619C16.8843 15.7045 16.988 15.1449 16.988 14.483Z" fill="#237F60"/>
<path d="M9.33141 13.0639H7.73766C7.69221 12.8026 7.6084 12.571 7.48624 12.3693C7.36408 12.1648 7.21209 11.9915 7.03027 11.8494C6.84846 11.7074 6.64107 11.6009 6.40811 11.5298C6.178 11.456 5.92942 11.419 5.66238 11.419C5.18794 11.419 4.76749 11.5384 4.40101 11.777C4.03453 12.0128 3.7476 12.3594 3.54022 12.8168C3.33283 13.2713 3.22914 13.8267 3.22914 14.483C3.22914 15.1506 3.33283 15.7131 3.54022 16.1705C3.75044 16.625 4.03738 16.9688 4.40101 17.2017C4.76749 17.4318 5.18652 17.5469 5.65811 17.5469C5.91948 17.5469 6.1638 17.5128 6.39107 17.4446C6.62118 17.3736 6.82715 17.2699 7.00897 17.1335C7.19363 16.9972 7.34846 16.8295 7.47346 16.6307C7.6013 16.4318 7.68936 16.2045 7.73766 15.9489L9.33141 15.9574C9.27175 16.3722 9.14249 16.7614 8.94363 17.125C8.7476 17.4886 8.4905 17.8097 8.17232 18.0881C7.85414 18.3636 7.48198 18.5795 7.05584 18.7358C6.62971 18.8892 6.15669 18.9659 5.63681 18.9659C4.86976 18.9659 4.1851 18.7884 3.58283 18.4332C2.98056 18.0781 2.50613 17.5653 2.15953 16.8949C1.81294 16.2244 1.63965 15.4205 1.63965 14.483C1.63965 13.5426 1.81436 12.7386 2.1638 12.071C2.51323 11.4006 2.98908 10.8878 3.59135 10.5327C4.19363 10.1776 4.87544 10 5.63681 10C6.1226 10 6.57431 10.0682 6.99192 10.2045C7.40954 10.3409 7.78169 10.5412 8.1084 10.8054C8.4351 11.0668 8.70357 11.3878 8.9138 11.7685C9.12686 12.1463 9.26607 12.5781 9.33141 13.0639Z" fill="#237F60"/>
<path d="M19.2902 18.8466V17.9943L20.918 16.6477C21.026 16.5582 21.1183 16.4744 21.195 16.3963C21.2732 16.3168 21.3328 16.2351 21.374 16.1513C21.4166 16.0675 21.4379 15.9744 21.4379 15.8722C21.4379 15.7599 21.4138 15.6641 21.3655 15.5845C21.3186 15.505 21.2533 15.4439 21.1695 15.4013C21.0857 15.3572 20.9891 15.3352 20.8797 15.3352C20.7703 15.3352 20.6737 15.3572 20.5899 15.4013C20.5075 15.4453 20.4436 15.5099 20.3982 15.5952C20.3527 15.6804 20.33 15.7841 20.33 15.9062H19.205C19.205 15.5994 19.2739 15.3352 19.4116 15.1136C19.5494 14.892 19.744 14.7216 19.9955 14.6023C20.2469 14.483 20.5416 14.4233 20.8797 14.4233C21.2291 14.4233 21.5317 14.4794 21.7874 14.5916C22.0445 14.7024 22.2426 14.8587 22.3818 15.0604C22.5224 15.2621 22.5928 15.4986 22.5928 15.7699C22.5928 15.9375 22.558 16.1044 22.4884 16.2706C22.4188 16.4354 22.2938 16.6179 22.1134 16.8182C21.933 17.0185 21.6766 17.2571 21.3442 17.5341L20.9351 17.875V17.9006H22.6396V18.8466H19.2902Z" fill="#237F60"/>
<path d="M9.50006 3.5C7.50003 5 8.83339 8.99994 10.0001 10.9999C10.5 9.99995 13.7156 8.78547 16.0001 8.49994C20.0001 8 24.9567 5.07396 21.5001 2.99998C19.0001 1.49999 15 3 13.5001 4.99994C14.0001 3.5 11.1971 2.22724 9.50006 3.5Z" fill="#93FA83"/>
</svg>
